<svg width="71" height="102" viewBox="0 0 71 102" fill="none" xmlns="http://www.w3.org/2000/svg">
<path d="M0 0H71V82C71 91.4281 71 96.1421 68.0711 99.0711C65.1421 102 60.4281 102 51 102H20C10.5719 102 5.85786 102 2.92893 99.0711C0 96.1421 0 91.4281 0 82V0Z" fill="#F5F5F5"/>
<path d="M11.4482 50.3494C11.4529 41.1787 18.9338 33.7485 28.1462 33.7637C37.2093 33.7789 44.6553 41.2941 44.6611 50.431C44.6658 59.5692 37.1393 67.243 28.0074 67.0786C18.0203 66.899 11.3164 58.9536 11.4482 50.3494ZM28.1462 40.1504C22.294 40.12 17.7263 44.6436 17.71 50.4858C17.6948 56.0284 22.329 60.7024 27.8779 60.7397C33.7208 60.7793 38.2908 56.2826 38.3608 50.4264C38.4285 44.7882 33.8491 40.1807 28.1462 40.1504Z" fill="#1E9381"/>
<path d="M25.1162 19.1947C37.033 17.4529 54.5221 25.0416 58.7573 43.5988C62.6716 60.7488 51.5808 76.1873 38.0831 80.2247C38.2371 78.5121 38.2523 76.8763 38.5626 75.3001C38.8811 73.6795 40.14 72.7258 41.5016 71.8549C53.1979 64.3782 56.7879 49.2241 49.5752 37.3812C45.5069 30.6996 39.5123 26.7053 31.7397 25.4858C28.53 24.9821 26.2188 23.4175 25.2655 20.1869C25.1722 19.8686 25.164 19.5246 25.1162 19.1947Z" fill="#5AB947"/>
<path d="M23.6885 78.2473C23.6873 75.6509 25.8562 73.4299 28.388 73.4346C31.103 73.4392 33.4259 75.708 33.3745 78.3056C33.3232 80.9043 31.1298 83.0694 28.5735 83.0472C25.9064 83.0227 23.6908 80.846 23.6885 78.2473Z" fill="#5AB947"/>
<path d="M42.7011 71.1098C49.4214 66.8322 60.6137 61.911 58.7586 43.5986C61.6392 57.2417 55.731 74.2705 38.0844 80.2246C35.8653 74.2693 40.7573 72.3468 42.7011 71.1098Z" fill="#18907D"/>
</svg>
