<svg width="71" height="102" viewBox="0 0 71 102" fill="none" xmlns="http://www.w3.org/2000/svg">
<path d="M0 0H71V82C71 91.4281 71 96.1421 68.0711 99.0711C65.1421 102 60.4281 102 51 102H20C10.5719 102 5.85786 102 2.92893 99.0711C0 96.1421 0 91.4281 0 82V0Z" fill="#F5F5F5"/>
<path d="M11.4482 50.3497C11.4529 41.1789 18.9338 33.7488 28.1462 33.7639C37.2093 33.7791 44.6553 41.2943 44.6611 50.4313C44.6658 59.5694 37.1393 67.2432 28.0074 67.0788C18.0203 66.8993 11.3164 58.9538 11.4482 50.3497ZM28.1462 40.1506C22.294 40.1203 17.7263 44.6439 17.71 50.4861C17.6948 56.0286 22.329 60.7026 27.8779 60.74C33.7208 60.7796 38.2908 56.2828 38.3608 50.4266C38.4285 44.7885 33.8491 40.1809 28.1462 40.1506Z" fill="#1E9381"/>
<path d="M25.1162 19.1949C37.0331 17.4531 54.5221 25.0418 58.7573 43.599C62.6716 60.7491 51.5808 76.1876 38.0831 80.225C38.2371 78.5123 38.2523 76.8766 38.5626 75.3003C38.8812 73.6798 40.14 72.7261 41.5016 71.8552C53.1979 64.3784 56.7879 49.2244 49.5753 37.3814C45.5069 30.6998 39.5123 26.7055 31.7397 25.486C28.53 24.9823 26.2188 23.4177 25.2656 20.1871C25.1722 19.8688 25.1641 19.5249 25.1162 19.1949Z" fill="#5AB947"/>
<path d="M23.6892 78.2476C23.688 75.6512 25.857 73.4302 28.3887 73.4348C31.1037 73.4395 33.4266 75.7083 33.3753 78.3058C33.3239 80.9046 31.1305 83.0696 28.5742 83.0475C25.9071 83.023 23.6915 80.8463 23.6892 78.2476Z" fill="#5AB947"/>
<path d="M42.7011 71.11C49.4214 66.8324 60.6137 61.9113 58.7586 43.5989C61.6392 57.2419 55.731 74.2707 38.0844 80.2248C35.8653 74.2695 40.7573 72.347 42.7011 71.11Z" fill="#18907D"/>
</svg>
