<svg width="454" height="405" viewBox="0 0 454 405" fill="none" xmlns="http://www.w3.org/2000/svg">
<path d="M443.717 272.186C443.792 319.792 428.009 366.067 398.861 403.707H58.1377C28.9896 366.067 13.2071 319.792 13.2815 272.186C13.2815 153.323 109.641 56.9727 228.504 56.9727C347.367 56.9727 443.717 153.326 443.717 272.186Z" fill="white"/>
<path opacity="0.1" d="M443.717 272.186C443.792 319.792 428.009 366.067 398.861 403.707H58.1377C28.9896 366.067 13.2071 319.792 13.2815 272.186C13.2815 153.323 109.641 56.9727 228.504 56.9727C347.367 56.9727 443.717 153.326 443.717 272.186Z" fill="#18927F"/>
<path d="M334.827 404.401H244.302L238.87 332.151L331.584 335.416C331.584 335.416 332.706 326.993 332.762 342.961C332.799 354.038 335.112 375.998 334.827 404.401Z" fill="#354B46"/>
<path d="M277.22 328.001C277.136 329.721 277.042 331.451 276.93 333.171C275.488 357.136 272.174 380.952 267.018 404.401H176.541C177.719 367.716 178.701 338.659 178.701 338.659L238.871 332.152L242.479 331.757L277.22 328.001Z" fill="#354B46"/>
<path d="M299.042 83.1755C299.042 83.1755 300.069 106.806 305.174 115.491C319.882 140.49 323.664 168.317 308.023 182.444C292.383 196.571 194.768 194.5 188.149 161.015C182.576 132.823 196.007 130.117 199.796 107.057C201.51 96.6222 206.067 74.7637 206.067 74.7637" fill="#354B46"/>
<path d="M215.52 157.334C215.688 157.312 217.558 188.345 253.609 185.639C278.568 183.769 287.466 157.289 288.038 157.289C285.347 156.718 280.816 155.886 279.621 155.248C275.691 153.136 270.828 150.94 269.561 143.308C268.831 138.908 270.07 116.405 269.688 111.954L231.378 120.505C231.913 129.905 235.66 151.695 222.529 155.554C220.344 156.19 217.99 156.775 215.52 157.334Z" fill="#B1DAD3"/>
<path opacity="0.52" d="M230.84 146.647C231.44 144.713 231.827 142.719 231.992 140.701C232.414 136.096 232.33 131.459 231.742 126.872C239.529 125.821 246.864 122.607 252.915 117.595C253.626 120.222 257.539 131.701 256.456 134.198C254.408 138.918 244.787 146.647 230.84 146.647Z" fill="#354B46"/>
<path d="M234.272 136.839C249.338 138.654 269.017 133.066 273.532 113.051L277.606 94.9918C282.121 74.9773 275.269 56.3806 256.425 52.1273C237.58 47.8755 219.834 60.9236 215.318 80.9404L213.514 88.9355C211.782 96.614 207.391 133.605 234.272 136.839Z" fill="#B1DAD3"/>
<path d="M230.669 114.729C233.561 114.783 236.401 115.516 238.958 116.87C239.061 116.926 239.138 117.02 239.174 117.132C239.209 117.244 239.199 117.365 239.146 117.47C239.093 117.575 239.001 117.655 238.89 117.694C238.779 117.732 238.657 117.725 238.551 117.676C233.035 114.894 227.863 114.917 223.594 117.744C223.508 117.804 223.419 117.859 223.327 117.91C223.22 117.955 223.101 117.957 222.993 117.916C222.885 117.876 222.796 117.795 222.746 117.691C222.695 117.588 222.686 117.468 222.721 117.358C222.756 117.248 222.831 117.156 222.932 117.099C222.966 117.08 223.022 117.042 223.099 116.991C225.341 115.501 227.977 114.713 230.669 114.729Z" fill="#354B46"/>
<path d="M229.933 108.601H229.895C229.12 108.483 228.353 108.323 227.596 108.121C226.465 107.81 224.979 107.28 225.125 106.265C225.293 105.107 230.268 93.0817 230.835 91.7144C230.858 91.6536 230.894 91.598 230.939 91.551C230.984 91.504 231.038 91.4666 231.098 91.4409C231.158 91.4152 231.222 91.4018 231.288 91.4014C231.353 91.401 231.417 91.4137 231.478 91.4387C231.538 91.4637 231.592 91.5005 231.638 91.547C231.684 91.5934 231.72 91.6486 231.744 91.7092C231.768 91.7697 231.78 91.8345 231.778 91.8997C231.777 91.9649 231.762 92.0291 231.736 92.0886C229.613 97.2095 226.203 105.625 226.091 106.404C226.232 106.756 228.112 107.357 230.038 107.636C230.162 107.655 230.274 107.72 230.351 107.82C230.428 107.919 230.463 108.044 230.45 108.169C230.437 108.294 230.376 108.409 230.28 108.49C230.185 108.572 230.061 108.613 229.936 108.605L229.933 108.601Z" fill="#354B46"/>
<path d="M292.562 101.857L275.669 98.1467C262.972 92.4859 259.855 70.055 259.855 70.055C259.855 70.055 243.68 84.7569 206.072 74.763C206.072 74.763 215.517 22.1596 270.987 39.4846C288.873 45.0712 301.2 63.7193 298.737 87.9879C297.007 104.99 292.562 101.857 292.562 101.857Z" fill="#354B46"/>
<path d="M270.986 118.884C276.713 120.176 282.738 115.095 284.03 109.37C285.322 103.645 281.392 99.437 275.662 98.1455L271.846 101.317L266.062 117.779L270.986 118.884Z" fill="#B1DAD3"/>
<path d="M227.756 81.024C226.112 79.8796 224.191 79.198 222.193 79.0505C221.21 78.9723 220.22 79.0423 219.258 79.2582C218.305 79.4678 217.382 79.7967 216.512 80.237C216.392 80.2938 216.299 80.3951 216.253 80.5194C216.206 80.6436 216.21 80.781 216.264 80.9023C216.317 81.0237 216.416 81.1193 216.539 81.169C216.662 81.2187 216.799 81.2186 216.922 81.1685L216.958 81.1535C217.762 80.7931 218.607 80.5348 219.475 80.3846C220.333 80.2319 221.209 80.2098 222.073 80.3191C223.788 80.5231 225.418 81.1767 226.799 82.2137L226.843 82.2492C227.003 82.3739 227.206 82.4299 227.408 82.4048C227.609 82.3798 227.792 82.2758 227.917 82.1158C228.042 81.9557 228.098 81.7527 228.073 81.5514C228.048 81.35 227.944 81.1669 227.783 81.0422L227.756 81.024Z" fill="#354B46"/>
<path d="M242.515 84.4454C244.206 84.0931 245.96 84.1944 247.599 84.739C248.428 85.008 249.211 85.4006 249.922 85.9034C250.644 86.408 251.299 87.0013 251.873 87.6693L251.899 87.6977C251.989 87.7947 252.113 87.853 252.245 87.8601C252.377 87.8672 252.507 87.8227 252.607 87.7359C252.706 87.6491 252.769 87.5269 252.78 87.3952C252.791 87.2634 252.751 87.1324 252.667 87.0299C252.066 86.2615 251.371 85.572 250.597 84.9774C249.819 84.3726 248.953 83.8886 248.03 83.5415C246.16 82.8247 244.131 82.624 242.156 82.9605C242.055 82.9757 241.958 83.011 241.871 83.0643C241.784 83.1177 241.708 83.188 241.648 83.271C241.589 83.3541 241.546 83.4483 241.524 83.548C241.501 83.6477 241.499 83.751 241.517 83.8516C241.535 83.9523 241.573 84.0483 241.629 84.134C241.684 84.2197 241.757 84.2934 241.841 84.3506C241.926 84.4079 242.021 84.4476 242.122 84.4674C242.222 84.4872 242.325 84.4867 242.425 84.4659L242.457 84.4596L242.515 84.4454Z" fill="#354B46"/>
<path d="M275.635 97.9299L275.82 97.465C254.544 88.9797 260.55 68.0203 260.612 67.8087L260.134 67.665C260.072 67.8798 253.928 89.2726 275.635 97.9299Z" fill="#354B46"/>
<path d="M218.598 89.5339C219.912 89.5339 220.977 88.4687 220.977 87.1546C220.977 85.8406 219.912 84.7754 218.598 84.7754C217.284 84.7754 216.219 85.8406 216.219 87.1546C216.219 88.4687 217.284 89.5339 218.598 89.5339Z" fill="#354B46"/>
<path d="M242.118 93.5827C243.432 93.5827 244.497 92.5175 244.497 91.2035C244.497 89.8894 243.432 88.8242 242.118 88.8242C240.804 88.8242 239.738 89.8894 239.738 91.2035C239.738 92.5175 240.804 93.5827 242.118 93.5827Z" fill="#354B46"/>
<path opacity="0.1" d="M249.441 108.062C249.701 106.244 247.903 104.483 245.425 104.129C242.946 103.775 240.727 104.961 240.467 106.779C240.207 108.597 242.005 110.358 244.483 110.712C246.961 111.066 249.181 109.88 249.441 108.062Z" fill="#354B46"/>
<path opacity="0.1" d="M218.395 102.813C218.131 104.628 215.912 105.812 213.433 105.462C213.005 105.4 212.584 105.294 212.178 105.146C212.112 102.973 212.154 100.883 212.263 98.9541C212.957 98.7979 213.674 98.7725 214.378 98.8791C216.856 99.2273 218.653 100.991 218.395 102.813Z" fill="#354B46"/>
<path d="M41.5881 155.512C41.9198 154.855 42.4473 154.317 43.0978 153.973C43.7483 153.629 44.4896 153.495 45.2194 153.59C45.213 153.546 45.2174 153.502 45.2322 153.46C45.2471 153.418 45.2719 153.38 45.3046 153.35C45.3372 153.32 45.3767 153.298 45.4197 153.287C45.4626 153.276 45.5076 153.275 45.5509 153.285L43.0888 151.52C42.3522 151.016 41.8231 150.262 41.599 149.398C41.375 148.534 41.4712 147.618 41.8699 146.82C42.2894 146.044 42.9819 145.452 43.8132 145.157C44.6446 144.863 45.5556 144.888 46.3695 145.227C46.3632 145.193 46.3869 145.16 46.3924 145.124L45.3804 144.399C44.6884 143.92 44.1827 143.218 43.9489 142.41C43.7152 141.602 43.7677 140.738 44.0976 139.964C44.3146 139.484 44.6356 139.057 45.0374 138.715C45.4393 138.373 45.9119 138.125 46.4214 137.988C46.9308 137.851 47.4643 137.829 47.9833 137.923C48.5024 138.017 48.9941 138.225 49.4229 138.533L51.7572 140.206C51.7643 140.192 51.7572 140.176 51.7667 140.163C51.7761 140.149 51.8014 140.145 51.8148 140.131C51.2782 139.528 50.9624 138.761 50.9193 137.956C50.8763 137.15 51.1086 136.353 51.578 135.697C52.6832 133.924 55.2235 134.286 56.7336 135.368L70.4739 144.86L68.0181 140.725C67.5247 139.929 67.3514 138.976 67.5332 138.058C67.7151 137.139 68.2384 136.324 68.9977 135.777C69.3998 135.508 69.8525 135.323 70.3282 135.235C70.8038 135.147 71.2925 135.156 71.7643 135.263C72.2362 135.37 72.6814 135.571 73.0727 135.856C73.464 136.14 73.7933 136.501 74.0404 136.917L87.4516 159.494C89.0248 162.143 89.5033 165.301 88.7855 168.296C88.0676 171.292 86.21 173.89 83.6072 175.538C80.5887 177.449 77.0683 178.416 73.497 178.313C69.9258 178.211 66.4666 177.044 63.5627 174.963L42.8117 160.09C42.1214 159.577 41.6249 158.845 41.4028 158.014C41.1807 157.183 41.246 156.301 41.5881 155.512Z" fill="#B1DAD3"/>
<g opacity="0.25">
<path opacity="0.25" d="M65.3586 149.591C65.3083 149.661 65.2328 149.708 65.1481 149.723C65.0634 149.738 64.9763 149.719 64.9055 149.67L51.8495 140.622C51.8125 140.598 51.7807 140.567 51.7559 140.53C51.7312 140.494 51.714 140.453 51.7055 140.41C51.6969 140.366 51.6971 140.322 51.7062 140.279C51.7152 140.235 51.7328 140.194 51.7579 140.158C51.783 140.122 51.8152 140.091 51.8525 140.068C51.8898 140.044 51.9314 140.028 51.9749 140.021C52.0185 140.014 52.063 140.015 52.1058 140.026C52.1487 140.036 52.1891 140.055 52.2245 140.081L65.2804 149.125C65.3519 149.175 65.4007 149.251 65.4162 149.336C65.4318 149.422 65.4127 149.51 65.3633 149.582L65.3586 149.591Z" fill="#354B46"/>
</g>
<g opacity="0.25">
<path opacity="0.25" d="M61.528 155.456C61.4778 155.526 61.4022 155.573 61.3175 155.588C61.2329 155.603 61.1458 155.584 61.0749 155.535L46.5049 145.44C46.4333 145.391 46.3843 145.315 46.3687 145.229C46.353 145.143 46.3719 145.055 46.4212 144.983C46.4728 144.914 46.5487 144.867 46.6338 144.851C46.7188 144.836 46.8065 144.853 46.8791 144.9L61.4499 154.993C61.5213 155.042 61.5702 155.118 61.5857 155.204C61.6012 155.29 61.5822 155.378 61.5328 155.45L61.528 155.456Z" fill="#354B46"/>
</g>
<g opacity="0.25">
<path opacity="0.25" d="M57.4173 161.836C57.3673 161.906 57.2918 161.953 57.2072 161.968C57.1226 161.983 57.0356 161.964 56.9649 161.915L45.3418 153.863C45.2747 153.811 45.23 153.736 45.2169 153.653C45.2038 153.569 45.2233 153.484 45.2714 153.414C45.3195 153.345 45.3925 153.296 45.4752 153.279C45.558 153.262 45.6442 153.277 45.716 153.322L57.3391 161.374C57.4108 161.424 57.4598 161.5 57.4753 161.586C57.4909 161.672 57.4717 161.76 57.422 161.832L57.4173 161.836Z" fill="#354B46"/>
</g>
<path d="M93.3638 151.349L126.741 228.43L172.795 165.398L212.707 201.376L144.552 289.644L144.105 290.276C141.377 294.012 137.743 296.992 133.544 298.935C129.346 300.879 124.722 301.721 120.108 301.384C115.495 301.046 111.043 299.539 107.172 297.005C103.302 294.471 100.14 290.994 97.9849 286.9L49.9893 175.475L93.3638 151.349Z" fill="#18927F"/>
<path d="M130.605 236.495C130.691 236.495 130.775 236.473 130.85 236.431C130.925 236.389 130.987 236.329 131.032 236.256C131.077 236.183 131.102 236.1 131.105 236.014C131.108 235.928 131.089 235.843 131.05 235.767L127.189 228.202C127.127 228.088 127.022 228.003 126.898 227.965C126.773 227.926 126.639 227.938 126.523 227.997C126.407 228.056 126.319 228.158 126.277 228.281C126.235 228.405 126.242 228.539 126.298 228.657L130.159 236.223C130.201 236.305 130.265 236.374 130.344 236.422C130.422 236.47 130.513 236.495 130.605 236.495Z" fill="#354B46"/>
<path d="M170.727 225.654C171.863 238.995 177.386 322.225 178.478 338.657H332.685C333.535 323.836 333.612 259.031 336.836 230.049C339.915 202.394 345.949 188.548 341.524 180.372C334.293 167.01 323.909 154.959 304.001 153.296C295.728 152.603 280.462 155.555 280.462 155.555C280.462 155.555 279.412 176.746 254.433 177.925C220.427 179.53 222.687 155.609 222.529 155.552C215.519 152.989 191.119 151.684 180.375 158.78C159.874 172.317 168.317 197.383 170.727 225.654Z" fill="#18927F"/>
<path d="M171.875 234.313L170.876 234.37L172.078 255.555L173.077 255.498L171.875 234.313Z" fill="#354B46"/>
<path d="M452.622 164.865C452.232 164.242 451.657 163.756 450.979 163.473C450.3 163.19 449.55 163.125 448.833 163.286C448.835 163.242 448.827 163.198 448.808 163.158C448.789 163.117 448.761 163.082 448.726 163.055C448.69 163.028 448.649 163.011 448.605 163.003C448.562 162.996 448.517 162.999 448.475 163.013L450.764 161.029C451.451 160.459 451.908 159.66 452.052 158.779C452.195 157.898 452.015 156.995 451.545 156.236C451.055 155.503 450.311 154.977 449.456 154.76C448.601 154.544 447.696 154.653 446.917 155.065C446.917 155.03 446.894 154.999 446.886 154.964L447.826 154.149C448.471 153.609 448.91 152.863 449.068 152.037C449.226 151.211 449.094 150.355 448.694 149.615C448.434 149.157 448.075 148.761 447.643 148.458C447.212 148.155 446.718 147.951 446.198 147.862C445.678 147.772 445.145 147.799 444.637 147.941C444.129 148.082 443.659 148.335 443.26 148.68L441.089 150.561C441.081 150.548 441.089 150.531 441.076 150.519C441.064 150.507 441.04 150.505 441.026 150.492C441.504 149.843 441.747 149.049 441.715 148.243C441.683 147.437 441.378 146.665 440.851 146.055C439.588 144.391 437.09 144.986 435.687 146.202L422.878 156.919L424.943 152.577C425.363 151.739 425.448 150.773 425.183 149.875C424.917 148.976 424.32 148.212 423.513 147.737C423.088 147.506 422.62 147.364 422.138 147.319C421.656 147.275 421.171 147.33 420.711 147.479C420.25 147.629 419.826 147.871 419.462 148.19C419.099 148.51 418.804 148.9 418.596 149.337L407.322 173.053C406 175.835 405.814 179.023 406.804 181.94C407.795 184.858 409.884 187.273 412.627 188.675C415.809 190.3 419.404 190.938 422.95 190.507C426.497 190.076 429.834 188.595 432.534 186.256L451.827 169.534C452.467 168.959 452.893 168.185 453.037 167.338C453.182 166.49 453.035 165.619 452.622 164.865Z" fill="#B1DAD3"/>
<g opacity="0.25">
<path opacity="0.25" d="M428.408 161.154C428.465 161.218 428.544 161.258 428.63 161.264C428.715 161.271 428.8 161.244 428.866 161.189L441.034 150.982C441.067 150.954 441.094 150.92 441.114 150.882C441.134 150.844 441.146 150.802 441.15 150.759C441.154 150.716 441.149 150.672 441.136 150.631C441.123 150.59 441.102 150.552 441.074 150.519C441.046 150.486 441.012 150.458 440.974 150.439C440.936 150.419 440.894 150.406 440.851 150.403C440.808 150.399 440.765 150.404 440.724 150.417C440.682 150.43 440.644 150.45 440.611 150.478L428.443 160.685C428.377 160.741 428.335 160.821 428.327 160.908C428.32 160.995 428.347 161.081 428.403 161.148L428.408 161.154Z" fill="#354B46"/>
</g>
<g opacity="0.25">
<path opacity="0.25" d="M432.761 166.642C432.818 166.707 432.898 166.747 432.983 166.753C433.069 166.76 433.153 166.732 433.219 166.677L446.797 155.286C446.864 155.23 446.905 155.15 446.913 155.063C446.921 154.976 446.894 154.89 446.838 154.823C446.78 154.759 446.7 154.719 446.614 154.711C446.528 154.704 446.443 154.729 446.375 154.782L432.797 166.173C432.73 166.23 432.688 166.31 432.681 166.397C432.673 166.484 432.701 166.57 432.757 166.637L432.761 166.642Z" fill="#354B46"/>
</g>
<g opacity="0.25">
<path opacity="0.25" d="M437.443 172.619C437.5 172.683 437.579 172.723 437.665 172.729C437.75 172.736 437.835 172.709 437.901 172.654L448.733 163.564C448.8 163.508 448.842 163.428 448.849 163.341C448.857 163.254 448.83 163.168 448.774 163.101C448.718 163.034 448.637 162.992 448.551 162.985C448.464 162.977 448.377 163.004 448.311 163.06L437.478 172.147C437.412 172.203 437.37 172.283 437.363 172.37C437.355 172.457 437.382 172.543 437.438 172.61L437.443 172.619Z" fill="#354B46"/>
</g>
<path d="M402.027 163.871L376.653 228.944L339.603 176.922L299.699 212.902L356.846 300.167L357.293 300.798C360.021 304.535 363.656 307.515 367.854 309.458C372.052 311.402 376.676 312.244 381.29 311.906C385.904 311.569 390.356 310.062 394.227 307.528C398.097 304.994 401.259 301.517 403.414 297.423L444.408 186.999L402.027 163.871Z" fill="#18927F"/>
<path d="M372.792 237.01C372.706 237.01 372.622 236.988 372.547 236.946C372.472 236.904 372.409 236.843 372.365 236.77C372.32 236.697 372.295 236.614 372.291 236.528C372.288 236.443 372.307 236.358 372.346 236.281L376.206 228.716C376.268 228.6 376.373 228.512 376.498 228.473C376.624 228.433 376.76 228.444 376.877 228.504C376.994 228.564 377.083 228.668 377.124 228.793C377.166 228.918 377.156 229.054 377.098 229.172L373.237 236.737C373.195 236.819 373.131 236.888 373.053 236.936C372.974 236.984 372.884 237.01 372.792 237.01Z" fill="#354B46"/>
<path d="M420.765 404.396H41.0762C40.833 404.389 40.602 404.288 40.4324 404.113C40.2628 403.939 40.168 403.705 40.168 403.461C40.168 403.218 40.2628 402.984 40.4324 402.81C40.602 402.635 40.833 402.533 41.0762 402.526H420.765C421.009 402.533 421.24 402.635 421.409 402.81C421.579 402.984 421.674 403.218 421.674 403.461C421.674 403.705 421.579 403.939 421.409 404.113C421.24 404.288 421.009 404.389 420.765 404.396Z" fill="#B1DAD3"/>
<path d="M129.457 103.626V8.08743C129.457 5.94305 128.606 3.88646 127.09 2.36987C125.574 0.853272 123.517 0.000837236 121.373 0L8.99758 0C6.85266 0 4.79559 0.852066 3.27891 2.36875C1.76222 3.88544 0.910156 5.94251 0.910156 8.08743L0.910156 79.3247C0.910156 81.4696 1.76222 83.5266 3.27891 85.0433C4.79559 86.56 6.85266 87.4121 8.99758 87.4121H100.309L125.777 105.525C126.125 105.773 126.536 105.92 126.962 105.951C127.389 105.981 127.816 105.893 128.196 105.697C128.576 105.501 128.895 105.204 129.117 104.839C129.34 104.474 129.457 104.054 129.457 103.626Z" fill="#18927F"/>
<path d="M46.7039 71.1541C49.11 72.4513 52.1122 71.5524 53.4095 69.1462C54.7067 66.7401 53.8078 63.7379 51.4016 62.4407C48.9955 61.1434 45.9933 62.0424 44.6961 64.4485C43.3988 66.8546 44.2977 69.8568 46.7039 71.1541Z" fill="white"/>
<path d="M53.9482 57.2319C53.1962 56.8262 52.6361 56.1384 52.3911 55.3198C52.1461 54.5012 52.2362 53.6188 52.6417 52.8667L58.321 42.3327C58.6641 41.6964 59.2113 41.1939 59.8746 40.9062C60.5379 40.6185 61.2787 40.5623 61.9778 40.7466C62.1173 40.7823 76.5356 44.4116 81.1386 35.874C84.0269 30.5167 81.654 24.4035 75.3656 21.0132C68.5561 17.3419 61.3842 22.2641 61.0838 22.4735C60.3864 22.9526 59.5284 23.1381 58.6953 22.99C57.8622 22.8419 57.1208 22.372 56.6312 21.6818C56.1416 20.9917 55.9431 20.1367 56.0786 19.3014C56.2141 18.4661 56.6727 17.7177 57.3554 17.2177C57.7886 16.9132 68.0492 9.74876 78.4233 15.3418C87.8982 20.4502 91.4264 30.369 86.8118 38.9282C81.2506 49.2432 68.3499 48.3864 62.8621 47.4885L58.3138 55.9247C57.9081 56.6768 57.2203 57.237 56.4016 57.4821C55.583 57.7272 54.7005 57.6372 53.9482 57.2319Z" fill="white"/>
</svg>
