<svg width="92" height="115" viewBox="0 0 92 115" fill="none" xmlns="http://www.w3.org/2000/svg">
<path d="M75.6615 38.2638C74.6831 41.1619 74.5254 45.1064 72.8072 47.6744C69.0271 53.3094 61.6933 54.2755 55.726 56.3041C55.332 56.3777 54.9489 56.5008 54.5859 56.6704L52.4756 57.3345C50.446 57.9704 48.4246 58.6145 46.4112 59.2665C43.6136 60.1721 39.7688 60.7276 37.7554 63.0138C36.5954 64.3346 35.5154 65.7231 34.5211 67.1717C34.327 67.4575 34.0885 67.7714 33.7449 67.7996C33.5266 67.7996 33.3406 67.5138 33.1586 67.3971C29.5686 65.4731 26.9286 62.8327 24.7171 59.4839C18.0412 49.2223 15.3133 36.9052 17.0356 24.8C17.0599 24.6229 17.0841 24.4499 17.1124 24.2728C17.7912 20.3562 19.5844 16.7157 22.2792 13.7835C25.0044 10.8374 28.2182 8.37989 31.78 6.51828C33.8991 5.40277 36.0835 4.41486 38.3214 3.55987C43.1783 1.65107 48.3349 0.608762 53.555 0.480713C58.5127 0.485251 63.422 1.45184 68.0083 3.32642C74.3233 5.84207 79.2192 10.5393 79.6276 17.6475C80.0319 24.6551 77.8972 31.6386 75.6615 38.2638Z" fill="#012150"/>
<ellipse cx="26.298" cy="49.1275" rx="6.87291" ry="6.84258" fill="#B1DAD3"/>
<ellipse cx="28.6629" cy="48.725" rx="6.46861" ry="6.44008" fill="#18927F"/>
<path d="M91.6228 98.6919C64.5969 119.409 26.9007 119.244 0.0595703 98.2894L19.7322 89.1082C20.6691 88.6698 21.5683 88.1555 22.4208 87.5707L22.8695 87.2567L23.1849 87.0152C25.3259 85.3842 27.0883 83.3125 28.3517 80.9414C29.9688 77.9025 30.5025 74.5456 30.5267 71.1243C30.5267 69.9691 30.5025 68.8139 30.4661 67.6588C30.4297 66.5036 30.3893 65.3645 30.3772 64.2133C30.361 62.936 30.3475 61.6601 30.3367 60.3855L31.0806 60.7679L31.1372 60.7961L33.2395 61.8788L34.2139 62.0438L45.4854 63.9517L49.9528 64.7084L58.0669 66.089L58.4469 78.9691L58.6046 84.3225L58.6329 85.2241V85.3569L63.5248 87.3372L63.828 87.462L91.6228 98.6919Z" fill="#B1DAD3"/>
<path d="M30.4662 65.1551L43.7512 77.5603C47.8425 81.1407 53.1769 82.988 58.6169 82.7083L58.4592 77.355L58.0791 64.4749L49.9651 63.0983C48.8573 63.5975 47.7496 64.0966 46.6418 64.5313C43.3267 65.8314 39.5789 65.3363 36.3648 63.9839C33.97 62.9268 31.8966 61.261 30.353 59.1538L30.4662 65.1551Z" fill="#18927F"/>
<path d="M91.6228 98.692C64.5969 119.409 26.9007 119.244 0.0595703 98.2895L19.7322 89.1084C20.6691 88.6699 21.5683 88.1556 22.4208 87.5708L22.8695 87.2568C32.718 93.9424 45.8412 97.9876 57.234 92.8919C59.9074 91.7417 62.1952 89.855 63.828 87.4541L91.6228 98.692Z" fill="#18927F"/>
<path d="M74.663 52.5284C74.4925 55.4674 74.017 58.381 73.2439 61.2225C71.5015 68.0329 68.6148 74.7668 67.1796 77.2865C66.1042 79.1662 64.6043 79.5284 62.2311 80.104C56.2777 81.4606 50.0263 80.1449 45.1338 76.5056L30.4096 65.6863C30.2034 63.6738 29.8557 61.5606 29.4676 59.4072C28.3437 53.1523 26.8882 46.5271 27.5189 40.6747C27.7239 39.0107 28.5353 37.4796 29.7991 36.3719C33.187 33.176 39.502 31.727 43.4398 30.7368C49.3505 29.2234 55.4229 28.3218 61.2487 26.5387C65.5382 25.2104 70.1673 23.1899 72.7386 19.3419C72.7386 19.3419 73.1833 23.693 73.2844 24.6872C73.4986 26.7359 73.4946 28.515 73.717 30.5356C73.9366 32.75 73.8001 34.9851 73.3127 37.1568C72.9771 38.6581 72.5809 40.1554 72.2979 41.6688C72.027 43.1179 72.4111 43.142 73.159 44.1684C74.6953 46.2614 74.756 50.045 74.663 52.5284Z" fill="#B1DAD3"/>
<path d="M47.616 41.1335C50.0822 41.1335 50.0822 44.909 47.616 44.9291H47.5069C45.0407 44.9291 45.0407 41.1537 47.5069 41.1335H47.616Z" fill="#012150"/>
<path d="M67.8833 40.5702C70.1716 40.5903 70.1716 44.072 67.8833 44.0921H67.7822C65.4899 44.0921 65.4899 40.5903 67.7822 40.5702H67.8833Z" fill="#012150"/>
<path d="M60.4886 42.7437C60.4684 42.8242 62.4251 46.1891 63.4439 49.8237C63.9167 51.7666 64.1368 53.7619 64.0989 55.7606H58.637" stroke="#012150"/>
<path d="M73.264 61.2226C71.5215 68.033 68.6349 74.7669 67.1996 77.2866C66.1242 79.1663 64.6243 79.5285 62.2512 80.1041C56.2978 81.4607 50.0464 80.145 45.1538 76.5057L30.4094 65.6864C30.1668 63.3156 29.2976 61.0455 28.7922 58.711C28.5739 57.6564 28.3879 56.5536 28.6467 55.491C28.7174 56.0501 28.9587 56.5741 29.338 56.9923C31.2463 59.5764 33.4779 62.4945 36.6556 63.5571C39.9708 64.664 43.7469 64.8371 46.9448 63.2754C49.7303 61.9149 52.4593 60.1399 55.3661 59.0209C57.2995 58.2262 59.3857 57.8674 61.4749 57.9704C64.4424 58.1716 65.7119 59.5039 67.8829 61.2629C68.5944 61.8425 69.3909 62.4462 70.3086 62.4503C71.3598 62.4664 72.3705 61.8868 73.264 61.2226Z" fill="#012150"/>
<path d="M54.4121 63.4002C57.1939 64.2596 60.1942 64.0866 62.8577 62.9132" stroke="#B1DAD3"/>
<path d="M41.5234 37.9135C45.2658 37.1409 49.1157 37.0319 52.8961 37.5915" stroke="#012150"/>
<path d="M65.3965 37.9662C67.709 37.4345 70.0913 37.2701 72.4553 37.4791" stroke="#012150"/>
<path d="M54.0563 53.7482C53.4529 54.0557 53.1647 54.7553 53.3776 55.3961C53.5904 56.0369 54.2407 56.4275 54.9094 56.3161" stroke="#012150"/>
<path d="M29.0632 59.4234L29.4675 59.3993L29.7344 59.7132L30.6036 65.2759L30.4095 65.3483L30.1184 64.9498L29.0632 59.4234Z" fill="#012150"/>
</svg>
