<svg width="92" height="118" viewBox="0 0 92 118" fill="none" xmlns="http://www.w3.org/2000/svg">
<path d="M91.4191 101.897C64.5992 122.457 27.1902 122.292 0.553711 101.498L20.0764 92.3865C21.0062 91.9514 21.8985 91.4411 22.7445 90.8607C23.0012 90.6849 23.258 90.5012 23.5028 90.3095C25.6275 88.6909 27.3764 86.6349 28.6302 84.2819C29.578 82.474 30.2077 80.5178 30.4918 78.4981C30.6877 77.1876 30.7869 75.8646 30.7887 74.5397C30.7887 72.2549 30.6643 69.9701 30.6402 67.6813C30.6242 66.4165 30.6108 65.1502 30.6001 63.8827L31.4025 64.2821L33.4888 65.3566L34.4557 65.5204L45.6414 67.4137L58.1269 69.5307L58.5041 82.3127L58.6284 86.4908L58.6886 88.52V88.6438L63.5432 90.609L91.4191 101.897Z" fill="#B1DAD3"/>
<path d="M58.6406 87.6972C57.2616 87.9334 55.8429 87.7146 54.6004 87.0741L30.6724 67.5896C30.6443 66.6868 30.6203 67.6335 30.6082 66.7308C30.5922 65.4659 30.5788 64.1997 30.5681 62.9321L31.3705 63.3316L33.4568 64.4061L34.4237 64.5698L45.6094 66.4632L58.0949 68.5802L58.4721 81.3622L58.5964 85.5403L58.6566 87.5694V87.7012L58.6406 87.6972Z" fill="#18927F"/>
<path d="M91.4191 101.897C64.5992 122.456 27.1902 122.292 0.553711 101.497L20.0764 92.3863C21.0062 91.9511 21.8985 91.4408 22.7445 90.8604C23.0012 90.6847 23.258 90.5009 23.5028 90.3092C32.9512 97.0038 45.846 101.226 56.9995 96.2289C59.6555 95.0305 62.0949 93.0973 63.5392 90.6128L91.4191 101.897Z" fill="#18927F"/>
<path d="M84.2375 21.8976C84.2014 22.1333 84.1572 22.365 84.1051 22.5967C83.8267 23.7842 83.3796 24.9261 82.7771 25.9879L82.745 26.0438C82.5163 26.4432 82.2716 26.8427 82.0068 27.2421C81.3042 28.2675 80.5377 29.2481 79.7119 30.178L79.2184 30.7252C78.8854 31.0967 78.5484 31.4602 78.2113 31.8197C78.4656 31.7654 78.7268 31.7506 78.9857 31.7757C79.0818 31.7836 79.1771 31.7996 79.2705 31.8237C80.5504 32.0873 81.6457 33.2736 81.9867 34.6197C82.0068 34.7076 82.0268 34.7995 82.0429 34.8873C82.3598 36.6768 81.6417 38.4823 80.755 40.08C79.2023 42.908 76.9636 44.7894 74.9937 47.2459C73.5172 49.0753 72.6987 51.2403 71.0899 52.9898L70.9695 53.1216L70.8733 53.2175C66.6205 57.5794 59.9725 58.6139 54.4238 60.4992C52.4177 61.1863 30.6643 67.3376 30.6643 68.6797C30.6643 68.3881 28.5338 66.2831 25.8498 63.7227C16.2208 54.6195 13.0553 40.5553 18.7845 28.4923C24.943 15.5106 38.9291 6.2477 52.2492 1.79797C56.4137 0.407927 61.14 -0.526756 65.0878 1.39853C69.0357 3.32382 71.0016 9.2954 67.7278 12.2113C69.7869 10.6603 72.3481 9.91933 74.9214 10.1302C77.2983 10.2785 79.5399 11.2822 81.2284 12.9542C82.1718 13.8957 82.931 15.0037 83.4671 16.2216C83.6878 16.727 83.8715 17.2477 84.0168 17.7794C84.3781 19.1218 84.4532 20.5246 84.2375 21.8976Z" fill="#00214E"/>
<path d="M84.2374 21.8977C84.2013 22.1333 84.1571 22.365 84.105 22.5967C83.8266 23.7842 83.3795 24.9262 82.777 25.9879L82.7449 26.0438C82.5162 26.4433 82.2714 26.8427 82.0066 27.2421C81.3041 28.2676 80.5376 29.2481 79.7117 30.178L79.2183 30.7252C78.8853 31.0967 78.5482 31.4602 78.2112 31.8197C78.4655 31.7654 78.7267 31.7506 78.9856 31.7757C79.0817 31.7836 79.177 31.7996 79.2704 31.8237C80.5503 32.0873 81.6456 33.2736 81.9866 34.6197C82.0066 34.7076 82.0267 34.7995 82.0428 34.8874C82.3597 36.6768 81.6416 38.4823 80.7549 40.08C79.2022 42.908 76.9635 44.7894 74.9935 47.2459C73.5171 49.0754 72.6986 51.2403 71.0898 52.9898L70.9694 53.1217L70.8731 53.2175C69.2599 51.0564 68.232 48.5186 67.8882 45.8479C67.2021 40.3197 67.6194 34.2962 67.4308 28.7001C67.3666 26.7468 67.2502 24.4181 67.8801 22.5647C68.0523 22.1059 68.2829 21.671 68.5662 21.2705C69.3045 20.0848 70.1463 18.966 71.0818 17.9273C72.1426 16.8028 73.482 15.9763 74.9655 15.5306C75.7664 15.304 76.5873 15.1542 77.4168 15.0833C78.3038 14.9967 79.198 15.0141 80.0809 15.1352C81.2586 15.3026 82.397 15.6772 83.443 16.2416C83.6636 16.747 83.8473 17.2677 83.9926 17.7994C84.3591 19.1338 84.4425 20.5295 84.2374 21.8977Z" fill="#00214E"/>
<ellipse cx="26.6521" cy="52.694" rx="6.82052" ry="6.79043" fill="#B1DAD3"/>
<ellipse cx="28.8188" cy="52.6939" rx="6.10638" ry="6.07944" fill="#18927F"/>
<path d="M28.907 46.3032L30.6723 69.0711L57.3285 84.5773C61.1489 85.9979 65.4286 84.3012 67.2222 80.6548C71.0578 72.8338 77.2123 60.4872 76.4019 55.8897C75.1982 49.0993 71.9886 46.7027 71.9886 46.7027L73.3246 38.7379C73.8261 35.7381 74.4721 32.6065 73.7258 29.5908C72.8712 26.1356 70.2473 24.6577 68.0889 22.0734C62.4078 29.3591 53.0677 33.4773 44.9111 37.6514C40.7025 39.8243 28.907 46.3032 28.907 46.3032Z" fill="#B1DAD3"/>
<path d="M58.809 44.3459C58.7769 44.4818 64.1691 58.7736 64.1691 58.7736L56.9714 59.1251" stroke="#00214E"/>
<path d="M41.7656 41.5782C45.4799 40.8146 49.3001 40.7078 53.0516 41.2626" stroke="#00214E"/>
<path d="M65.457 41.6218C67.7505 41.0942 70.1134 40.9311 72.4581 41.1385" stroke="#00214E"/>
<path d="M49.5974 63.1196C49.7083 62.9449 49.8873 62.8242 50.0913 62.7863C50.2953 62.7484 50.5059 62.7968 50.6726 62.9199C51.5072 63.503 53.0317 64.7413 55.1983 65.1687C58.1511 65.7559 60.7108 64.5775 61.3247 65.3365C61.6697 65.7639 61.2485 66.2871 60.442 66.9342C58.7358 68.2062 56.5858 68.7377 54.4801 68.4081C51.6395 67.8769 49.5051 64.6015 49.5051 63.4391C49.5085 63.3266 49.5402 63.2167 49.5974 63.1196Z" fill="white"/>
<path d="M48.5382 46.1597C50.9856 46.1796 50.9856 49.9024 48.5382 49.9224H48.4259C45.9785 49.9024 45.9785 46.1796 48.4259 46.1597H48.5382Z" fill="#00214E"/>
<path d="M68.7027 45.9036C70.9735 45.9036 70.9735 49.3787 68.7027 49.3946H68.6024C66.3275 49.3946 66.3275 45.9195 68.6024 45.9036H68.7027Z" fill="#00214E"/>
</svg>
