<svg width="96" height="114" viewBox="0 0 96 114" fill="none" xmlns="http://www.w3.org/2000/svg">
<path fill-rule="evenodd" clip-rule="evenodd" d="M64.2904 6.33318C76.8031 14.4609 79.2739 29.5861 79.4451 43.3775C79.5173 49.208 79.4621 55.0132 79.407 60.8107C79.2997 72.0896 79.1927 83.3396 80.0252 94.691C79.9668 93.8807 66.7737 91.9319 65.267 91.8654C62.0993 91.729 58.8229 92.0252 55.5835 92.3181C53.9871 92.4624 52.3996 92.6059 50.8386 92.6965C48.1159 92.866 45.3324 92.9339 42.5336 93.0022C37.1679 93.1332 31.7462 93.2656 26.5894 94.1176C25.5895 94.2833 24.6027 94.451 23.624 94.6173C18.4425 95.4979 13.4875 96.3399 8.00395 96.644C7.57049 96.7189 7.12451 96.6316 6.75184 96.3988C6.33447 96.0581 6.33447 95.4431 6.33447 94.9071C6.33447 88.4844 6.62346 82.0645 6.91222 75.6496C7.32011 66.5883 7.72756 57.5368 7.31946 48.5009C6.95642 40.8137 8.23676 33.1372 11.0758 25.9793C13.5014 19.8067 17.3066 14.2649 22.2029 9.77375C23.5321 8.5777 24.9589 7.4936 26.4684 6.53263C37.6831 -0.64769 52.9922 -1.00504 64.2904 6.33318ZM27.4953 37.4854L33.376 41.6407L52.3246 22.7799L49.9414 21.2798C47.67 25.1123 44.5529 28.3804 40.826 30.837C36.7101 33.6519 32.2243 35.889 27.4953 37.4854Z" fill="#00214E"/>
<path d="M95.3176 97.6868C67.4172 119.075 28.5013 118.903 0.791748 97.2713L21.1009 87.7931C21.7226 87.5004 22.3286 87.1758 22.9165 86.8207L23.384 86.5299C23.5509 86.426 23.7137 86.3179 23.8765 86.2057C26.4387 84.4459 28.5386 82.0987 29.9993 79.362C31.6687 76.2248 32.2197 72.7593 32.2447 69.2273C32.2447 67.2868 32.1654 65.3462 32.1153 63.4099C32.1153 62.975 32.107 62.5387 32.0903 62.101C32.0736 60.7851 32.0597 59.4679 32.0485 58.1493H32.0778L32.8749 58.5648L35.0453 59.6826L47.6874 61.8226L60.6759 64.0249L60.9723 73.9975L61.0557 76.8564V77.301L61.2519 83.8954L66.0391 85.8359L69.7954 87.3484L95.3176 97.6868Z" fill="#B1DAD3"/>
<path d="M60.9723 74.0019C60.0727 74.6152 58.9982 74.9228 57.9088 74.8787C51.7401 74.218 39.6948 69.402 32.1237 60.489C32.1237 60.054 32.1153 59.6177 32.0986 59.18V58.1537L32.8958 58.5692L35.0661 59.687L47.7083 61.827L60.6968 64.0293L60.9723 74.0019Z" fill="#18927F"/>
<ellipse cx="21.6143" cy="44.8404" rx="7.09528" ry="7.06399" fill="#B1DAD3"/>
<ellipse cx="24.1185" cy="44.009" rx="7.09528" ry="7.06397" fill="#18927F"/>
<path d="M69.8374 34.1444C74.7373 51.0481 64.3281 71.4879 57.9257 71.4879C49.1609 71.4879 27.8751 64.5153 22.9793 47.6116C18.0836 30.708 24.6113 13.9871 37.5497 10.2723C50.4881 6.55748 64.9375 17.2366 69.8374 34.1444Z" fill="#B1DAD3"/>
<path d="M45.6086 54.6796C47.6131 56.9104 50.3627 58.3411 53.3467 58.706" stroke="#00214E"/>
<path d="M54.215 35.9229C54.1941 36.006 56.2142 39.4798 57.266 43.232C57.7544 45.2391 57.9816 47.3004 57.9421 49.3652H52.3035" stroke="#00214E"/>
<path d="M59.3948 32.3866C62.3435 30.891 65.7537 30.5701 68.9317 31.489" stroke="#00214E"/>
<path d="M34.7073 34.0406C38.7737 31.9786 43.5511 31.8263 47.7417 33.6251" stroke="#00214E"/>
<path d="M42.028 37.7219C44.5739 37.7427 44.5739 41.6195 42.028 41.6362H41.9153C39.3694 41.6362 39.3694 37.7427 41.9153 37.7219H42.028Z" fill="#00214E"/>
<path d="M62.9505 37.1445C65.3128 37.1445 65.3128 40.7596 62.9505 40.7762H62.8461C60.4797 40.7762 60.4797 37.1612 62.8461 37.1445H62.9505Z" fill="#00214E"/>
<path d="M54.6323 5.83458C54.4382 7.79142 54.1218 9.73431 53.6849 11.652C52.9382 15.036 51.6712 18.2849 49.9286 21.2839C47.6572 25.1164 44.5401 28.3845 40.8132 30.841C36.6973 33.656 32.2115 35.8931 27.4824 37.4895C23.7373 38.7561 19.9076 39.76 16.0215 40.4938C16.1509 37.3233 16.0215 33.4007 16.4138 29.7191C16.706 27.0764 17.2903 24.5541 18.4673 22.5222C21.6607 17.1457 26.319 12.7803 31.9024 9.93168L31.9525 9.90675C38.1254 6.74458 47.6873 3.62397 54.6323 5.83458Z" fill="#00214E"/>
<path d="M95.3176 97.687C67.4172 119.075 28.5013 118.904 0.791748 97.2714L21.1009 87.7932C22.0681 87.3406 22.9964 86.8097 23.8765 86.2059C24.1436 86.0231 24.4107 85.832 24.6653 85.6325C26.8756 83.9487 28.695 81.81 29.9993 79.3622C30.9853 77.4814 31.6403 75.4464 31.9359 73.3453C32.2306 73.6297 32.5399 73.8988 32.8624 74.1515C35.4213 76.037 38.1987 77.6092 41.1347 78.8345C42.56 79.4264 44.0175 79.9383 45.5004 80.3678C49.9679 81.6647 54.6324 82.1558 59.2736 81.818C59.9163 81.7681 60.5632 81.7058 61.206 81.6601L61.2686 83.7709V83.9081L66.3188 85.9525L95.3176 97.687Z" fill="#18927F"/>
<path d="M49.9203 21.3006C47.6489 25.1331 44.5318 28.4012 40.8049 30.8578C36.689 33.6727 32.2032 35.9098 27.4741 37.5062L16.4055 29.7358L11.0757 25.9961C13.5013 19.8235 17.3065 14.2816 22.2028 9.79046C23.5314 8.58866 24.9582 7.49899 26.4683 6.53271L31.8941 9.94836L49.9203 21.3006Z" fill="#012150"/>
</svg>
