<svg width="99" height="119" viewBox="0 0 99 119" fill="none" xmlns="http://www.w3.org/2000/svg">
<path d="M63.6452 3.39795C58.919 1.65182 53.858 0.219984 48.8601 0.844227C40.9313 1.85311 33.3838 5.16618 26.9818 10.448C14.422 20.8288 11.1924 39.5997 5.94634 55.1098C3.97709 60.9288 2.00785 66.8045 1.1532 72.9509C-1.33593 91.185 9.64852 97.7592 23.8862 102.238C41.826 107.882 61.4593 106.197 78.9501 99.3874C93.8494 93.5859 99.8241 79.5993 96.6733 62.8932C95.098 54.6514 92.1283 46.8287 89.1351 39.0802C83.44 24.3778 78.0561 8.78915 63.6452 3.39795Z" fill="#00214E"/>
<path d="M98.8119 102.09C72.4829 124.556 35.762 124.376 9.61304 101.653L28.7777 91.6961C29.3643 91.3886 29.9362 91.0477 30.491 90.6746L30.9321 90.369C31.0896 90.2599 31.2432 90.1464 31.3968 90.0285C33.8171 88.1735 35.7988 85.7 37.1746 82.817C38.75 79.5212 39.2699 75.8848 39.2935 72.1743C39.2935 69.6729 39.1714 67.1803 39.1478 64.6746C39.132 63.2923 39.1189 61.9085 39.1084 60.5232L39.8961 60.9597L41.9441 62.134L53.8738 64.3822L66.1303 66.6958L66.5006 80.6649L66.6739 87.6189L71.1913 89.6575L74.7359 91.2465L98.8119 102.09Z" fill="#B1DAD3"/>
<path d="M66.4809 79.2199C65.4096 79.9533 64.3974 80.2981 63.5113 80.1934C57.6862 79.4993 46.3237 74.4399 39.1714 65.0762C39.1714 64.6164 39.1635 64.158 39.1478 63.7011C39.132 62.3159 39.1189 60.932 39.1084 59.5497L39.8961 59.9862L41.9441 61.1605L53.8738 63.4086L66.1304 65.7223L66.4809 79.2199Z" fill="#18927F"/>
<path d="M98.8119 102.09C72.4829 124.556 35.762 124.376 9.61304 101.653L28.7777 91.6958C29.3685 91.3873 29.9396 91.0483 30.491 90.6787C39.8173 98.2787 52.7986 103.225 63.9917 97.6414C67.1662 96.0611 70.0294 93.276 71.1952 89.6484L74.7399 91.2374L98.8119 102.09Z" fill="#18927F"/>
<ellipse cx="29.1283" cy="46.5671" rx="6.69543" ry="7.42108" fill="#B1DAD3"/>
<ellipse cx="31.8851" cy="45.6937" rx="6.69544" ry="7.42108" fill="#18927F"/>
<path d="M63.3931 74.5616C55.2641 76.2467 35.036 67.2366 30.4122 49.4784C29.4408 45.7787 28.9242 41.9507 28.8762 38.0979C28.8762 37.3427 28.8762 36.5919 28.9077 35.8498C29.4119 23.4784 35.1227 13.15 44.1457 10.2471C44.6656 10.0812 45.1894 9.94149 45.7211 9.81053C48.8769 9.15892 52.1304 9.41135 55.1735 10.5439C59.0976 12.0311 62.6493 14.5245 65.5396 17.8209C66.7591 19.1768 67.8811 20.6364 68.8952 22.1863C71.4778 26.1565 73.4157 30.5957 74.6218 35.3041C79.277 53.0885 69.4623 73.3088 63.3931 74.5616Z" fill="#B1DAD3"/>
<path d="M61.6799 36.0593C61.7897 37.7563 62.0536 39.4368 62.4676 41.0751C62.8614 42.52 63.4601 43.4149 64.2478 44.6634C64.5212 45.0731 64.7573 45.5118 64.9528 45.973C65.9965 48.566 64.6141 51.4428 61.9832 51.4428H60.3723" stroke="#00214E"/>
<path d="M54.5986 48.0898C54.0107 48.4234 53.7299 49.1821 53.9373 49.8771C54.1447 50.5721 54.7782 50.9957 55.4296 50.8749" stroke="#00214E"/>
<path d="M63.5427 30.6987C66.3254 29.128 69.5433 28.7909 72.5422 29.7558" stroke="#00214E"/>
<path d="M42.8777 31.9602C46.7151 29.7945 51.2231 29.6345 55.1776 31.5237" stroke="#00214E"/>
<path d="M60.4551 8.0338C56.5481 7.19129 51.8613 7.33971 48.0292 7.39209C45.9378 7.41829 43.8189 7.56671 41.8261 8.26516C36.3122 10.2339 32.7242 16.1228 30.4872 22.0596C29.9161 23.5744 24.0123 38.6479 24.1423 38.6785C27.9232 40.0405 31.972 38.1459 35.5205 36.1684C46.0521 30.2883 57.2295 20.8373 61.7588 8.34374C61.3373 8.23897 60.9002 8.12984 60.4551 8.0338Z" fill="#00214E"/>
<path d="M50.5261 55.1189C50.635 54.928 50.8107 54.796 51.0109 54.7546C51.2112 54.7132 51.418 54.7661 51.5816 54.9006C52.4009 55.5379 53.8975 56.8912 56.0243 57.3627C58.923 58 61.4397 56.7166 62.0383 57.5416C62.377 58.0087 61.9635 58.5806 61.1719 59.3096C59.497 60.6997 57.3863 61.2806 55.3193 60.9204C52.5308 60.3398 50.4355 56.7602 50.4355 55.4943C50.4355 55.3625 50.4667 55.233 50.5261 55.1189Z" fill="white"/>
<path d="M48.3245 36.9327C50.7269 36.9546 50.7269 41.0231 48.3245 41.0449H48.2181C45.8156 41.0231 45.8156 36.9546 48.2181 36.9327H48.3245Z" fill="#00214E"/>
<path d="M68.1193 36.6442C70.3524 36.6442 70.3524 40.442 68.1193 40.4595H68.0208C65.7877 40.4595 65.7877 36.6616 68.0208 36.6442H68.1193Z" fill="#00214E"/>
</svg>
