<svg width="94" height="130" viewBox="0 0 94 130" fill="none" xmlns="http://www.w3.org/2000/svg">
<path d="M50.5295 23.8193C49.9715 26.1997 46.7781 27.3757 45.4299 29.2493C44.0328 31.1877 43.9065 34.5616 41.9025 35.8025C39.8984 37.0434 36.8069 35.6646 34.4403 36.0539C32.1593 36.4311 29.6869 38.7588 27.2918 38.2032C24.8968 37.6477 23.7196 34.4683 21.8378 33.1261C19.8908 31.7351 16.5019 31.6135 15.2555 29.6142C14.0091 27.615 15.394 24.5411 15.003 22.185C14.6242 19.9141 12.2861 17.4525 12.8442 15.0721C13.4022 12.6917 16.5915 11.5116 17.9398 9.63809C19.3409 7.69969 19.4631 4.32573 21.4672 3.08482C23.4712 1.84392 26.5668 3.2227 28.9334 2.8334C31.2144 2.46031 33.6868 0.128548 36.0778 0.684117C38.4687 1.23968 39.6541 4.419 41.5359 5.76128C43.4829 7.15223 46.8677 7.27389 48.1141 9.27312C49.3605 11.2724 47.9756 14.3462 48.3707 16.7023C48.7455 18.9733 51.0876 21.4348 50.5295 23.8193Z" fill="#00193F"/>
<path d="M57.7882 78.4839C56.7617 79.7005 55.8737 81.0347 54.8269 82.231C49.2792 88.5815 37.1899 84.4046 31.1819 80.6089C26.7666 77.8311 23.4428 73.6379 20.5916 69.2745C17.0886 63.8932 14.164 58.0415 12.8932 51.7559C7.08072 22.9636 44.1673 10.4329 64.9774 24.5614C72.7165 29.8332 79.7102 41.6583 78.0117 51.1354C77.1441 55.9449 73.7104 60.2719 74.0769 65.1463C74.4843 70.3937 79.2458 75.3898 77.25 80.2642C76.472 82.1742 74.7857 83.5327 73.4171 85.0818C71.576 87.1662 70.2278 89.7778 70.0689 92.5516C69.91 95.3254 71.0668 98.2289 73.3641 99.8186C67.6901 99.0643 64.1953 92.3042 65.6617 86.7931C66.1423 84.9886 67.0303 83.2975 67.4172 81.4686C67.8042 79.6397 67.5761 77.5026 66.1708 76.2617C64.3664 74.668 61.4255 75.2722 59.5315 76.7605C58.8934 77.2748 58.3092 77.8523 57.7882 78.4839Z" fill="#00214E"/>
<path d="M93.0499 114.458C65.8213 135.331 27.8422 135.164 0.799805 114.052L20.6404 104.811C21.2471 104.525 21.8385 104.208 22.4123 103.862L22.8685 103.578C23.0314 103.476 23.1903 103.371 23.3491 103.261C25.8497 101.544 27.899 99.2533 29.3245 96.5824C30.9538 93.5207 31.4915 90.1387 31.5159 86.6917C31.5159 84.3721 31.3896 82.0525 31.3652 79.7288C31.3489 78.442 31.3353 77.1565 31.3245 75.8723L32.1391 76.2778L34.2572 77.3687L46.5949 79.4571L59.2708 81.6064L59.6537 94.5832L59.8451 101.019L64.5171 102.913L68.183 104.389L93.0499 114.458Z" fill="#B1DAD3"/>
<path d="M59.6251 94.5872C55.5275 95.3116 51.3119 94.9836 47.377 93.6342C38.587 90.6942 32.6686 83.6016 32.1106 76.2941L34.2287 77.3849L46.5664 79.4734L59.2423 81.6226L59.6251 94.5872Z" fill="#18927F"/>
<ellipse cx="19.4918" cy="62.8957" rx="6.92446" ry="6.89391" fill="#B1DAD3"/>
<ellipse cx="21.9357" cy="62.0846" rx="6.92446" ry="6.89391" fill="#18927F"/>
<path d="M69.5596 52.0316C74.6308 69.53 64.7532 89.8467 57.2341 90.6821C39.0513 92.7097 26.1351 83.4679 21.064 65.9695C15.9928 48.4711 22.734 31.1715 36.1349 27.3231C49.5357 23.4747 64.4844 34.5373 69.5596 52.0316Z" fill="#B1DAD3"/>
<path d="M43.1492 73.4312C45.1073 75.608 47.7918 77.0041 50.705 77.3607" stroke="#18927F"/>
<path d="M58.7781 57.2102C58.8015 58.277 59.2926 59.2801 60.1222 59.9556C60.9432 60.6258 61.8586 61.1723 62.8391 61.5777" stroke="#18927F"/>
<path d="M53.7922 56.334C53.7922 56.4354 56.0488 62.7737 57.4296 66.6059C57.6608 67.2569 57.5605 67.979 57.1607 68.5432C56.7608 69.1073 56.111 69.4433 55.4175 69.4446H53.9348" stroke="#18927F"/>
<ellipse cx="41.6173" cy="58.0657" rx="7.7391" ry="4.80142" stroke="#00214E"/>
<ellipse cx="63.9427" cy="57.032" rx="7.7391" ry="4.80139" stroke="#00214E"/>
<path d="M49.3564 58.0659L56.2606 57.5427" stroke="#00214E"/>
<path d="M52.9819 32.3029C52.0043 34.2251 49.9677 35.8958 48.7458 37.8626C47.1613 40.4377 45.9638 43.2358 44.6196 45.9406C43.6217 47.9683 42.5097 49.9715 40.8234 51.4598C39.1371 52.9481 36.7501 53.8281 34.5832 53.2076C33.1005 52.8021 31.8989 51.7315 30.5711 50.9448C29.2432 50.1581 27.565 49.639 26.1924 50.3852C24.1884 51.4558 24.2169 54.3634 22.7831 56.1193C19.496 60.1461 13.4636 54.7202 12.7345 51.2043C11.6754 46.0664 15.9075 41.7719 18.9869 38.2276C21.5571 35.2673 25.0315 30.7538 29.064 29.7643C29.1332 29.7643 52.6886 20.4373 52.6886 20.4373C52.8964 23.572 54.1672 28.2071 53.4096 31.208C53.3068 31.5871 53.1634 31.9542 52.9819 32.3029Z" fill="#00214E"/>
<path d="M48.7904 66.9021C48.249 67.2234 48.0221 67.8886 48.2551 68.4717C48.4882 69.0548 49.1121 69.383 49.7273 69.246" stroke="#18927F"/>
<path d="M57.7964 49.8942C60.6741 48.4347 64.0022 48.1215 67.1037 49.0183" stroke="#18927F"/>
<path d="M35.3489 51.3947C39.3175 49.3828 43.9797 49.2342 48.0695 50.9892" stroke="#18927F"/>
<path d="M93.0499 114.458C65.8213 135.331 27.8422 135.164 0.799805 114.052L20.6404 104.81C21.5843 104.369 22.4903 103.851 23.3491 103.261C23.6098 103.083 23.8705 102.896 24.119 102.702C26.2761 101.059 28.0517 98.9713 29.3245 96.5824C30.2868 94.747 30.926 92.7609 31.2145 90.7104C31.5021 90.988 31.804 91.2505 32.1187 91.4972C34.6162 93.3358 37.3267 94.8689 40.1918 96.0634C41.5828 96.641 43.0053 97.1406 44.4524 97.5597C48.8124 98.8255 53.3646 99.3048 57.894 98.975C58.5213 98.9264 59.1527 98.8655 59.7799 98.8209L59.841 100.881V101.015L64.7696 103.01L93.0499 114.458Z" fill="#18927F"/>
<path d="M40.9089 62.1453C42.0475 62.2161 43.1664 61.8249 44.0105 61.0609C44.8546 60.2969 45.352 59.2252 45.3895 58.0901" stroke="#18927F"/>
<path d="M38.0332 74.3473C38.5415 73.4996 39.1683 72.7282 39.8947 72.0561C41.3915 70.6896 43.2687 69.806 45.2795 69.5216" stroke="#18927F"/>
<path d="M48.5134 42.1164H58.1507" stroke="#18927F"/>
<path d="M46.1592 45.2877H58.1507" stroke="#18927F"/>
<path d="M42.0085 55.9488C44.4972 55.9204 44.5706 59.7039 42.0859 59.7688H41.9718C39.4872 59.7972 39.4139 56.0177 41.8985 55.9488H42.0085Z" fill="#18927F"/>
<path d="M62.4725 55.2877C64.782 55.2594 64.8471 58.7672 62.5417 58.832H62.4399C60.1344 58.8564 60.0652 55.3486 62.3706 55.2837H62.4725V55.2877Z" fill="#18927F"/>
</svg>
