<svg width="99" height="110" viewBox="0 0 99 110" fill="none" xmlns="http://www.w3.org/2000/svg">
<path d="M99 92.5177C69.8266 114.881 29.135 114.702 0.161133 92.0832L21.397 82.1725C22.047 81.8665 22.6807 81.5271 23.2954 81.1558L23.7842 80.8517C23.9587 80.7431 24.1289 80.6301 24.2991 80.5128C26.9783 78.6726 29.174 76.2184 30.7013 73.3568C32.447 70.0764 33.023 66.4527 33.0492 62.7596C33.0492 60.7305 32.9663 58.7015 32.9139 56.6768C32.9139 56.222 32.9052 55.7658 32.8878 55.3081C32.8703 53.9322 32.8558 52.5549 32.8441 51.1761H32.8747L33.7082 51.6106L35.9776 52.7794L49.1965 55.017L62.7777 57.3198L63.0876 67.7475L63.1748 70.7368V71.2017L63.38 78.097L68.3856 80.1261L72.3133 81.7076L99 92.5177Z" fill="#B1DAD3"/>
<path d="M63.0876 67.7523C62.1469 68.3936 61.0234 68.7151 59.8843 68.669C53.4341 67.9782 40.8392 62.9425 32.9227 53.6227C32.9227 53.168 32.9139 52.7118 32.8965 52.2541V51.1809L33.73 51.6154L35.9994 52.7842L49.2183 55.0218L62.7995 57.3246L63.0876 67.7523Z" fill="#18927F"/>
<ellipse cx="21.9337" cy="37.2593" rx="7.41904" ry="7.3863" fill="#B1DAD3"/>
<ellipse cx="24.5523" cy="36.3907" rx="7.41902" ry="7.38629" fill="#18927F"/>
<path d="M72.3568 26.076C77.4803 43.751 66.5962 65.1234 59.9016 65.1234C50.7369 65.1234 28.4798 57.8327 23.3607 40.1577C18.2416 22.4828 25.0671 4.999 38.5959 1.11468C52.1247 -2.76965 67.2333 8.39669 72.3568 26.076Z" fill="#B1DAD3"/>
<path d="M47.0232 47.548C49.1191 49.8806 51.9941 51.3766 55.1143 51.7582" stroke="#00214E"/>
<path d="M56.0222 27.9355C56.0004 28.0224 58.1126 31.6548 59.2124 35.5782C59.723 37.6769 59.9607 39.8322 59.9194 41.9912H54.0234" stroke="#00214E"/>
<path d="M61.438 24.2378C64.5212 22.6741 68.0871 22.3385 71.41 23.2994" stroke="#00214E"/>
<path d="M35.624 25.9672C39.876 23.8111 44.8714 23.6518 49.2532 25.5328" stroke="#00214E"/>
<path d="M43.2787 29.8171C45.9409 29.8389 45.9409 33.8926 43.2787 33.91H43.1609C40.4988 33.91 40.4988 29.8389 43.1609 29.8171H43.2787Z" fill="#00214E"/>
<path d="M65.1559 29.2133C67.6259 29.2133 67.6259 32.9933 65.1559 33.0107H65.0468C62.5723 33.0107 62.5723 29.2306 65.0468 29.2133H65.1559Z" fill="#00214E"/>
<path d="M99 92.5181C69.8266 114.882 29.135 114.703 0.161133 92.0836L21.397 82.1729C22.4083 81.6996 23.379 81.1445 24.2991 80.5132C24.5785 80.322 24.8578 80.1221 25.124 79.9136C27.4352 78.153 29.3376 75.9166 30.7013 73.3572C31.7323 71.3906 32.4172 69.2627 32.7263 67.0658C33.0345 67.3631 33.3579 67.6445 33.6951 67.9087C36.3708 69.8802 39.2749 71.5243 42.3448 72.8054C43.8352 73.4243 45.3592 73.9596 46.9097 74.4086C51.5811 75.7648 56.4584 76.2783 61.3114 75.925C61.9834 75.8729 62.6599 75.8077 63.3319 75.7599L63.3974 77.9671V78.1105L68.678 80.2481L99 92.5181Z" fill="#18927F"/>
</svg>
