<svg width="25" height="24" viewBox="0 0 25 24" fill="none" xmlns="http://www.w3.org/2000/svg">
<g clip-path="url(#clip0_275_2764)">
<path d="M24.2135 12.2761C24.2135 11.4604 24.1474 10.6403 24.0063 9.83777H12.6875V14.4587H19.1692C18.9003 15.9491 18.036 17.2675 16.7705 18.1053V21.1036H20.6375C22.9083 19.0136 24.2135 15.9271 24.2135 12.2761Z" fill="#4285F4"/>
<path d="M12.6873 24.0008C15.9238 24.0008 18.6532 22.9382 20.6418 21.1039L16.7748 18.1055C15.6989 18.8375 14.31 19.252 12.6917 19.252C9.56112 19.252 6.9067 17.1399 5.95428 14.3003H1.96384V17.3912C4.00095 21.4434 8.15013 24.0008 12.6873 24.0008Z" fill="#34A853"/>
<path d="M5.95004 14.3003C5.44737 12.81 5.44737 11.1962 5.95004 9.70581V6.61487H1.964C0.261999 10.0056 0.261999 14.0005 1.964 17.3913L5.95004 14.3003Z" fill="#FBBC04"/>
<path d="M12.6873 4.74966C14.3982 4.7232 16.0517 5.36697 17.2907 6.54867L20.7167 3.12262C18.5473 1.0855 15.668 -0.034466 12.6873 0.000808666C8.15013 0.000808666 4.00095 2.55822 1.96384 6.61481L5.94987 9.70575C6.89788 6.86173 9.55671 4.74966 12.6873 4.74966Z" fill="#EA4335"/>
</g>
<defs>
<clipPath id="clip0_275_2764">
<rect width="24" height="24" fill="white" transform="translate(0.5)"/>
</clipPath>
</defs>
</svg>
