<svg width="452" height="436" viewBox="0 0 452 436" fill="none" xmlns="http://www.w3.org/2000/svg">
<path d="M385.937 6.49878H308.242V107.629H385.937V6.49878Z" fill="#F4F4F4"/>
<path d="M385.937 107.629H388.458V6.49934H385.937V107.629Z" fill="#F4F4F4"/>
<path opacity="0.05" d="M385.937 107.629H388.458V6.49934H385.937V107.629Z" fill="#292A2E"/>
<path opacity="0.05" d="M371.784 24.9209H322.395V89.2068H371.784V24.9209Z" fill="#292A2E"/>
<path opacity="0.03" d="M371.784 24.9209H369.21V89.2068H371.784V24.9209Z" fill="#292A2E"/>
<path d="M449.479 132.499H385.937V196.624H449.479V132.499Z" fill="#F4F4F4"/>
<path opacity="0.05" d="M437.905 144.18H397.512V184.943H437.905V144.18Z" fill="#292A2E"/>
<path d="M449.479 196.624H452V132.498H449.479V196.624Z" fill="#F4F4F4"/>
<path opacity="0.05" d="M449.479 196.624H452V132.498H449.479V196.624Z" fill="#292A2E"/>
<path opacity="0.03" d="M437.905 144.18H435.331V184.943H437.905V144.18Z" fill="#292A2E"/>
<path d="M220.103 0H8.43237V211.671H220.103V0Z" fill="#F4F4F4"/>
<path d="M222.529 0H220.103V211.671H222.529V0Z" fill="#F4F4F4"/>
<path opacity="0.05" d="M222.529 0H220.103V211.671H222.529V0Z" fill="#292A2E"/>
<path opacity="0.05" d="M168.825 145.858V90.4785H123.46V122.653H53.1907V179.622H23.3252V211.671H53.1907H58.9445H209.921V145.858H168.825Z" fill="#292A2E"/>
<path opacity="0.34" d="M162.318 96.4915H129.283V102.504H162.318V96.4915Z" fill="#FFFFFA"/>
<path opacity="0.34" d="M162.318 108.952H129.283V114.965H162.318V108.952Z" fill="#FFFFFA"/>
<path opacity="0.34" d="M162.318 121.412H129.283V127.425H162.318V121.412Z" fill="#FFFFFA"/>
<path opacity="0.34" d="M204.063 151.695H197.974V157.708H204.063V151.695Z" fill="#FFFFFA"/>
<path opacity="0.34" d="M204.063 164.155H197.974V170.168H204.063V164.155Z" fill="#FFFFFA"/>
<path opacity="0.34" d="M204.063 176.616H197.974V182.629H204.063V176.616Z" fill="#FFFFFA"/>
<path opacity="0.34" d="M192.799 151.695H186.71V157.708H192.799V151.695Z" fill="#FFFFFA"/>
<path opacity="0.34" d="M192.799 164.155H186.71V170.168H192.799V164.155Z" fill="#FFFFFA"/>
<path opacity="0.34" d="M192.799 176.616H186.71V182.629H192.799V176.616Z" fill="#FFFFFA"/>
<path opacity="0.34" d="M181.839 151.695H175.75V157.708H181.839V151.695Z" fill="#FFFFFA"/>
<path opacity="0.34" d="M181.839 164.155H175.75V170.168H181.839V164.155Z" fill="#FFFFFA"/>
<path opacity="0.34" d="M181.839 176.616H175.75V182.629H181.839V176.616Z" fill="#FFFFFA"/>
<path d="M220.103 104.648H177.511V0H173.989V104.648H58.9444V0H55.4218V104.648H8.43237V108.17H55.4218V211.671H58.9444V108.17H173.989V211.671H177.511V108.17H220.103V104.648Z" fill="white"/>
<path d="M228.535 211.415H0V218.455H228.535V211.415Z" fill="#F4F4F4"/>
<path opacity="0.1" d="M228.535 211.415H0V218.455H228.535V211.415Z" fill="#292A2E"/>
<path opacity="0.1" d="M231.835 211.415H228.535V218.455H231.835V211.415Z" fill="#292A2E"/>
<path opacity="0.1" d="M231.835 211.415H228.535V218.455H231.835V211.415Z" fill="#292A2E"/>
<path d="M50.3486 376.389C50.2893 376.389 50.2305 376.377 50.1757 376.355C50.1209 376.332 50.0712 376.298 50.0294 376.256C49.3931 375.621 48.3559 363.947 45.5626 329.194C44.4197 314.973 43.34 301.541 42.552 293.378C42.496 292.795 42.2698 292.728 42.1958 292.705C41.117 292.38 37.8373 294.966 36.0063 297.231C35.9309 297.324 35.8217 297.384 35.7025 297.396C35.5834 297.409 35.4641 297.374 35.3709 297.298C35.2777 297.223 35.2183 297.114 35.2057 296.995C35.1931 296.876 35.2283 296.756 35.3036 296.663C36.5147 295.166 40.4613 291.24 42.4554 291.84C42.8573 291.961 43.3585 292.311 43.4488 293.292C44.2377 301.462 45.3174 314.897 46.4607 329.121C48.1581 350.241 50.0808 374.167 50.713 375.674C50.7614 375.741 50.7903 375.821 50.7965 375.904C50.8026 375.986 50.7858 376.069 50.7479 376.143C50.71 376.217 50.6525 376.279 50.5816 376.322C50.5108 376.366 50.4294 376.389 50.3464 376.389H50.3486Z" fill="#494949"/>
<path d="M41.3919 308.358C48.885 302.352 51.3685 293.003 46.939 287.477C42.5095 281.951 32.8443 282.341 25.3513 288.347C17.8582 294.353 15.3748 303.702 19.8042 309.228C24.2337 314.754 33.8989 314.365 41.3919 308.358Z" fill="#18927F"/>
<path opacity="0.2" d="M41.3919 308.358C48.885 302.352 51.3685 293.003 46.939 287.477C42.5095 281.951 32.8443 282.341 25.3513 288.347C17.8582 294.353 15.3748 303.702 19.8042 309.228C24.2337 314.754 33.8989 314.365 41.3919 308.358Z" fill="white"/>
<path d="M21.9041 310.633C21.8613 310.633 21.8193 310.62 21.7831 310.597C21.7469 310.574 21.718 310.542 21.6998 310.503C21.6816 310.464 21.6747 310.421 21.6801 310.378C21.6855 310.336 21.7029 310.296 21.7303 310.263L43.0848 284.511C43.1038 284.488 43.127 284.469 43.1533 284.455C43.1795 284.441 43.2082 284.433 43.2378 284.43C43.2673 284.427 43.2971 284.431 43.3255 284.439C43.3538 284.448 43.3801 284.462 43.403 284.481C43.4258 284.5 43.4447 284.523 43.4585 284.55C43.4724 284.576 43.4809 284.605 43.4836 284.634C43.4864 284.664 43.4833 284.694 43.4745 284.722C43.4658 284.75 43.4515 284.777 43.4325 284.799L22.078 310.551C22.0568 310.576 22.0302 310.597 22.0002 310.611C21.9701 310.625 21.9373 310.633 21.9041 310.633Z" fill="white"/>
<path d="M85.6999 362.329C91.253 357.934 90.923 348.266 84.9628 340.737C79.0027 333.207 69.6694 330.666 64.1163 335.061C58.5633 339.457 58.8933 349.124 64.8534 356.654C70.8136 364.184 80.1469 366.725 85.6999 362.329Z" fill="#18927F"/>
<path d="M46.7036 374.918C46.6022 374.918 46.5038 374.883 46.4241 374.821C46.3445 374.758 46.2884 374.67 46.2647 374.571L32.8034 318.287C32.7113 317.903 32.5152 317.553 32.2367 317.273C31.9583 316.994 31.6082 316.797 31.225 316.703C30.8417 316.61 30.4402 316.624 30.0644 316.744C29.6887 316.864 29.3533 317.086 29.0952 317.384L24.9454 322.179C24.9071 322.226 24.86 322.264 24.8066 322.292C24.7532 322.32 24.6948 322.338 24.6346 322.343C24.5745 322.348 24.514 322.341 24.4566 322.322C24.3992 322.304 24.3461 322.274 24.3005 322.234C24.2548 322.195 24.2176 322.147 24.1909 322.093C24.1642 322.038 24.1487 321.98 24.1451 321.919C24.1416 321.859 24.1502 321.799 24.1703 321.742C24.1905 321.685 24.2219 321.633 24.2626 321.588L28.412 316.793C28.7788 316.369 29.2554 316.054 29.7895 315.884C30.3235 315.713 30.8943 315.693 31.4391 315.826C31.9838 315.958 32.4814 316.239 32.8772 316.636C33.2729 317.033 33.5514 317.532 33.6821 318.077L47.1426 374.361C47.1704 374.478 47.1508 374.6 47.0882 374.703C47.0255 374.805 46.9249 374.878 46.8084 374.905C46.7741 374.914 46.7389 374.918 46.7036 374.918Z" fill="#494949"/>
<path d="M41.7367 334.683C43.3731 325.22 39.0424 316.571 32.0639 315.364C25.0853 314.157 18.1015 320.85 16.4652 330.313C14.8288 339.776 19.1595 348.425 26.138 349.632C33.1166 350.839 40.1004 344.146 41.7367 334.683Z" fill="#18927F"/>
<path d="M50.3486 376.389C50.33 376.389 50.3115 376.388 50.2931 376.386C50.2342 376.378 50.1773 376.36 50.1256 376.33C50.074 376.301 50.0286 376.262 49.9921 376.215C49.9555 376.169 49.9286 376.115 49.9127 376.058C49.8969 376.001 49.8925 375.941 49.8998 375.882L58.4956 306.09C58.5893 305.33 58.9006 304.613 59.3921 304.025C59.8835 303.438 60.5342 303.005 61.2659 302.778C61.9976 302.552 62.7792 302.541 63.5167 302.748C64.2542 302.955 64.9163 303.37 65.4234 303.944L75.2484 315.072C75.2876 315.117 75.3177 315.168 75.337 315.225C75.3562 315.281 75.3642 315.34 75.3605 315.399C75.3568 315.458 75.3415 315.516 75.3155 315.57C75.2894 315.623 75.2531 315.671 75.2086 315.71C75.1641 315.749 75.1124 315.779 75.0563 315.798C75.0001 315.818 74.9408 315.826 74.8816 315.822C74.8224 315.818 74.7645 315.803 74.7112 315.777C74.6579 315.751 74.6103 315.715 74.571 315.67L64.746 304.542C64.3542 304.099 63.8425 303.777 63.2725 303.617C62.7024 303.457 62.0983 303.466 61.5328 303.641C60.9673 303.816 60.4644 304.151 60.0846 304.605C59.7048 305.059 59.4643 305.613 59.3919 306.201L50.7961 375.992C50.7827 376.101 50.7298 376.202 50.6474 376.275C50.565 376.348 50.4587 376.388 50.3486 376.389Z" fill="#494949"/>
<path d="M85.3243 321.256C88.7522 315.059 84.7189 306.267 76.3157 301.618C67.9124 296.97 58.3212 298.226 54.8933 304.423C51.4653 310.62 55.4986 319.412 63.9019 324.06C72.3052 328.709 81.8963 327.453 85.3243 321.256Z" fill="#18927F"/>
<path opacity="0.2" d="M85.6999 362.329C91.253 357.934 90.923 348.266 84.9628 340.737C79.0027 333.207 69.6694 330.666 64.1163 335.061C58.5633 339.457 58.8933 349.124 64.8534 356.654C70.8136 364.184 80.1469 366.725 85.6999 362.329Z" fill="white"/>
<path opacity="0.5" d="M41.7367 334.683C43.3731 325.22 39.0424 316.571 32.0639 315.364C25.0853 314.157 18.1015 320.85 16.4652 330.313C14.8288 339.776 19.1595 348.425 26.138 349.632C33.1166 350.839 40.1004 344.146 41.7367 334.683Z" fill="white"/>
<path opacity="0.5" d="M85.3243 321.256C88.7522 315.059 84.7189 306.267 76.3157 301.618C67.9124 296.97 58.3212 298.226 54.8933 304.423C51.4653 310.62 55.4986 319.412 63.9019 324.06C72.3052 328.709 81.8963 327.453 85.3243 321.256Z" fill="white"/>
<path d="M61.3422 435.607H39.3532L35.7091 365.252H64.9858L61.3422 435.607Z" fill="#292A2E"/>
<path opacity="0.3" d="M61.3422 435.607H39.3532L35.7091 365.252H64.9858L61.3422 435.607Z" fill="#18927F"/>
<path d="M85.7015 362.555C85.6674 362.555 85.6338 362.547 85.6031 362.533C85.5725 362.518 85.5456 362.496 85.5245 362.469L63.94 335.202C63.9216 335.178 63.908 335.152 63.8999 335.123C63.8917 335.095 63.8893 335.065 63.8927 335.035C63.8962 335.006 63.9053 334.978 63.9198 334.952C63.9342 334.926 63.9536 334.903 63.9768 334.884C64.0001 334.866 64.0267 334.852 64.0552 334.844C64.0838 334.836 64.1136 334.834 64.1431 334.837C64.1725 334.841 64.201 334.85 64.2269 334.864C64.2528 334.879 64.2756 334.898 64.2941 334.921L85.8785 362.189C85.9049 362.222 85.9214 362.262 85.9261 362.305C85.9308 362.347 85.9235 362.389 85.905 362.428C85.8865 362.466 85.8576 362.498 85.8216 362.521C85.7856 362.543 85.744 362.555 85.7015 362.555Z" fill="white"/>
<path d="M83.8893 323.441C83.8413 323.44 83.7946 323.425 83.7561 323.396L56.1362 303.228C56.0878 303.193 56.0554 303.14 56.0462 303.081C56.037 303.021 56.0516 302.961 56.087 302.913C56.1223 302.864 56.1754 302.832 56.2346 302.823C56.2938 302.813 56.3542 302.828 56.4026 302.863L84.0226 323.031C84.0605 323.06 84.0885 323.099 84.1026 323.145C84.1167 323.19 84.1163 323.238 84.1013 323.283C84.0863 323.328 84.0575 323.367 84.0191 323.395C83.9807 323.423 83.9345 323.438 83.8871 323.438L83.8893 323.441Z" fill="white"/>
<path d="M25.0162 349.337C24.9966 349.337 24.977 349.334 24.958 349.329C24.9006 349.313 24.8518 349.276 24.8221 349.224C24.7924 349.173 24.7843 349.111 24.7995 349.054L33.5918 316.111C33.599 316.082 33.612 316.054 33.6299 316.03C33.6478 316.006 33.6703 315.986 33.6962 315.971C33.722 315.956 33.7506 315.946 33.7802 315.942C33.8099 315.938 33.8401 315.94 33.8691 315.947C33.8981 315.955 33.9252 315.968 33.9489 315.987C33.9726 316.005 33.9924 316.028 34.0072 316.054C34.022 316.08 34.0315 316.109 34.035 316.139C34.0386 316.168 34.0362 316.199 34.028 316.227L25.2357 349.169C25.2228 349.218 25.1943 349.26 25.1546 349.291C25.1149 349.321 25.0662 349.337 25.0162 349.337Z" fill="white"/>
<path d="M335.127 24.8523H75.6231C68.1415 24.8523 62.0764 30.9174 62.0764 38.399V324.675C62.0764 332.157 68.1415 338.222 75.6231 338.222H335.127C342.609 338.222 348.674 332.157 348.674 324.675V38.399C348.674 30.9174 342.609 24.8523 335.127 24.8523Z" fill="white"/>
<path d="M334.871 338.29H75.3648C71.6536 338.286 68.0956 336.81 65.4713 334.185C62.8471 331.561 61.3709 328.003 61.3666 324.292V38.0161C61.3709 34.3048 62.8471 30.7468 65.4713 28.1226C68.0956 25.4983 71.6536 24.0221 75.3648 24.0178H334.871C338.582 24.022 342.14 25.4982 344.765 28.1224C347.389 30.7467 348.865 34.3048 348.869 38.0161V324.292C348.865 328.003 347.389 331.561 344.765 334.186C342.14 336.81 338.582 338.286 334.871 338.29ZM75.3648 24.9209C71.893 24.925 68.5646 26.306 66.1097 28.7609C63.6547 31.2158 62.2738 34.5443 62.2697 38.0161V324.292C62.2736 327.764 63.6546 331.092 66.1095 333.547C68.5645 336.002 71.893 337.383 75.3648 337.387H334.871C338.343 337.383 341.671 336.002 344.126 333.547C346.581 331.092 347.962 327.764 347.966 324.292V38.0161C347.962 34.5443 346.581 31.2158 344.126 28.7609C341.671 26.306 338.343 24.925 334.871 24.9209H75.3648Z" fill="#18927F"/>
<path d="M348.417 38.0142V48.4849H61.8213V38.0142C61.8213 34.4214 63.2485 30.9758 65.789 28.4353C68.3295 25.8948 71.7752 24.4675 75.368 24.4675H334.871C338.463 24.4675 341.909 25.8948 344.45 28.4353C346.99 30.9758 348.417 34.4214 348.417 38.0142Z" fill="#18927F"/>
<path opacity="0.1" d="M109.607 131.646C127.898 131.646 142.726 116.818 142.726 98.5269C142.726 80.2356 127.898 65.4075 109.607 65.4075C91.3155 65.4075 76.4874 80.2356 76.4874 98.5269C76.4874 116.818 91.3155 131.646 109.607 131.646Z" fill="#18927F"/>
<path opacity="0.2" d="M109.607 97.1018C115.96 97.1018 121.11 91.9515 121.11 85.5984C121.11 79.2452 115.96 74.095 109.607 74.095C103.254 74.095 98.1035 79.2452 98.1035 85.5984C98.1035 91.9515 103.254 97.1018 109.607 97.1018Z" fill="#18927F"/>
<path opacity="0.2" d="M134.505 120.366C131.397 123.911 127.568 126.75 123.274 128.695C118.979 130.641 114.32 131.647 109.605 131.646C104.891 131.646 100.232 130.639 95.9378 128.693C91.6441 126.747 87.8153 123.907 84.7076 120.362C86.2996 114.993 89.5842 110.283 94.0715 106.934C98.5588 103.584 104.009 101.775 109.608 101.776C115.208 101.776 120.657 103.586 125.144 106.937C129.631 110.287 132.914 114.998 134.505 120.366Z" fill="#18927F"/>
<path opacity="0.2" d="M125.25 154.24H80.3591C78.7391 154.24 77.4258 155.553 77.4258 157.173C77.4258 158.793 78.7391 160.107 80.3591 160.107H125.25C126.87 160.107 128.183 158.793 128.183 157.173C128.183 155.553 126.87 154.24 125.25 154.24Z" fill="#18927F"/>
<path opacity="0.1" d="M231.917 67.6318H161.356C158.721 67.6318 156.586 69.7678 156.586 72.4025V82.2975C156.586 84.9323 158.721 87.0682 161.356 87.0682H231.917C234.552 87.0682 236.688 84.9323 236.688 82.2975V72.4025C236.688 69.7678 234.552 67.6318 231.917 67.6318Z" fill="#18927F"/>
<path opacity="0.2" d="M264.605 97.8135H158.843C157.596 97.8135 156.586 98.8243 156.586 100.071C156.586 101.318 157.596 102.329 158.843 102.329H264.605C265.852 102.329 266.863 101.318 266.863 100.071C266.863 98.8243 265.852 97.8135 264.605 97.8135Z" fill="#18927F"/>
<path opacity="0.2" d="M264.605 111.36H158.843C157.596 111.36 156.586 112.371 156.586 113.618C156.586 114.865 157.596 115.876 158.843 115.876H264.605C265.852 115.876 266.863 114.865 266.863 113.618C266.863 112.371 265.852 111.36 264.605 111.36Z" fill="#18927F"/>
<path opacity="0.2" d="M246.542 124.907H158.843C157.596 124.907 156.586 125.918 156.586 127.165C156.586 128.412 157.596 129.423 158.843 129.423H246.542C247.789 129.423 248.8 128.412 248.8 127.165C248.8 125.918 247.789 124.907 246.542 124.907Z" fill="#18927F"/>
<path opacity="0.1" d="M191.917 168.569H81.6663C79.3243 168.569 77.4258 170.467 77.4258 172.809V183.286C77.4258 185.628 79.3243 187.527 81.6663 187.527H191.917C194.259 187.527 196.157 185.628 196.157 183.286V172.809C196.157 170.467 194.259 168.569 191.917 168.569Z" fill="#18927F"/>
<path opacity="0.2" d="M260.427 154.24H215.536C213.916 154.24 212.603 155.553 212.603 157.173C212.603 158.793 213.916 160.107 215.536 160.107H260.427C262.047 160.107 263.36 158.793 263.36 157.173C263.36 155.553 262.047 154.24 260.427 154.24Z" fill="#18927F"/>
<path opacity="0.1" d="M327.093 168.569H216.843C214.501 168.569 212.603 170.467 212.603 172.809V183.286C212.603 185.628 214.501 187.527 216.843 187.527H327.093C329.435 187.527 331.334 185.628 331.334 183.286V172.809C331.334 170.467 329.435 168.569 327.093 168.569Z" fill="#18927F"/>
<path opacity="0.2" d="M125.25 203.201H80.3591C78.7391 203.201 77.4258 204.514 77.4258 206.134C77.4258 207.754 78.7391 209.067 80.3591 209.067H125.25C126.87 209.067 128.183 207.754 128.183 206.134C128.183 204.514 126.87 203.201 125.25 203.201Z" fill="#18927F"/>
<path opacity="0.1" d="M191.917 217.529H81.6663C79.3243 217.529 77.4258 219.428 77.4258 221.77V232.247C77.4258 234.589 79.3243 236.487 81.6663 236.487H191.917C194.259 236.487 196.157 234.589 196.157 232.247V221.77C196.157 219.428 194.259 217.529 191.917 217.529Z" fill="#18927F"/>
<path opacity="0.2" d="M260.427 203.201H215.536C213.916 203.201 212.603 204.514 212.603 206.134C212.603 207.754 213.916 209.067 215.536 209.067H260.427C262.047 209.067 263.36 207.754 263.36 206.134C263.36 204.514 262.047 203.201 260.427 203.201Z" fill="#18927F"/>
<path opacity="0.1" d="M327.093 217.529H216.843C214.501 217.529 212.603 219.428 212.603 221.77V232.247C212.603 234.589 214.501 236.487 216.843 236.487H327.093C329.435 236.487 331.334 234.589 331.334 232.247V221.77C331.334 219.428 329.435 217.529 327.093 217.529Z" fill="#18927F"/>
<path opacity="0.2" d="M125.25 252.161H80.3591C78.7391 252.161 77.4258 253.474 77.4258 255.094C77.4258 256.714 78.7391 258.028 80.3591 258.028H125.25C126.87 258.028 128.183 256.714 128.183 255.094C128.183 253.474 126.87 252.161 125.25 252.161Z" fill="#18927F"/>
<path opacity="0.1" d="M191.917 266.49H81.6663C79.3243 266.49 77.4258 268.389 77.4258 270.731V281.208C77.4258 283.55 79.3243 285.448 81.6663 285.448H191.917C194.259 285.448 196.157 283.55 196.157 281.208V270.731C196.157 268.389 194.259 266.49 191.917 266.49Z" fill="#18927F"/>
<path opacity="0.2" d="M260.427 252.161H215.536C213.916 252.161 212.603 253.474 212.603 255.094C212.603 256.714 213.916 258.028 215.536 258.028H260.427C262.047 258.028 263.36 256.714 263.36 255.094C263.36 253.474 262.047 252.161 260.427 252.161Z" fill="#18927F"/>
<path opacity="0.1" d="M327.093 266.49H216.843C214.501 266.49 212.603 268.389 212.603 270.731V281.208C212.603 283.55 214.501 285.448 216.843 285.448H327.093C329.435 285.448 331.334 283.55 331.334 281.208V270.731C331.334 268.389 329.435 266.49 327.093 266.49Z" fill="#18927F"/>
<path opacity="0.2" d="M239.575 300.219H170.662C167.881 300.219 165.627 302.473 165.627 305.254V314.549C165.627 317.329 167.881 319.584 170.662 319.584H239.575C242.356 319.584 244.61 317.329 244.61 314.549V305.254C244.61 302.473 242.356 300.219 239.575 300.219Z" fill="#18927F"/>
<path d="M27.3129 435.607H426.992C427.037 435.608 427.082 435.601 427.123 435.585C427.165 435.569 427.203 435.545 427.236 435.514C427.268 435.483 427.293 435.446 427.311 435.404C427.328 435.363 427.337 435.319 427.337 435.274C427.337 435.229 427.328 435.185 427.311 435.144C427.293 435.103 427.268 435.066 427.236 435.035C427.203 435.004 427.165 434.979 427.123 434.963C427.082 434.947 427.037 434.94 426.992 434.942H27.3129C27.2682 434.94 27.2236 434.947 27.1818 434.963C27.14 434.979 27.1019 435.004 27.0697 435.035C27.0375 435.066 27.0119 435.103 26.9944 435.144C26.9769 435.185 26.9678 435.229 26.9678 435.274C26.9678 435.319 26.9769 435.363 26.9944 435.404C27.0119 435.446 27.0375 435.483 27.0697 435.514C27.1019 435.545 27.14 435.569 27.1818 435.585C27.2236 435.601 27.2682 435.608 27.3129 435.607Z" fill="#292A2E"/>
</svg>
